{
  "accessors": [
    {
      "bufferView": 1,
      "componentType": 5126,
      "count": 18276,
      "max": [
        19.535152435302734,
        3.4704234600067139,
        3.0309882164001465
      ],
      "min": [
        8.8781614303588867,
        -3.2639901638031006,
        -2.9169445037841797
      ],
      "type": "VEC3"
    },
    {
      "bufferView": 1,
      "byteOffset": 219312,
      "componentType": 5126,
      "count": 18276,
      "max": [
        0.99998223781585693,
        0.99999243021011353,
        0.99999713897705078
      ],
      "min": [
        -0.99997627735137939,
        -0.9999966025352478,
        -0.9999701976776123
      ],
      "type": "VEC3"
    },
    {
      "bufferView": 2,
      "componentType": 5126,
      "count": 18276,
      "max": [
        0.99990612268447876,
        0.99999421834945679,
        0.99996107816696167,
        1
      ],
      "min": [
        -0.99964112043380737,
        -0.99997830390930176,
        -0.99998414516448975,
        -1
      ],
      "type": "VEC4"
    },
    {
      "bufferView": 2,
      "byteOffset": 292416,
      "componentType": 5126,
      "count": 18276,
      "max": [
        0.9686274528503418,
        0.63137257099151611,
        0.63137257099151611,
        1
      ],
      "min": [
        0.63529413938522339,
        0.15686275064945221,
        0.29019609093666077,
        1
      ],
      "type": "VEC4"
    },
    {
      "bufferView": 0,
      "componentType": 5125,
      "count": 101853,
      "max": [
        18275
      ],
      "min": [
        0
      ],
      "type": "SCALAR"
    }
  ],
  "asset": {
    "extras": {
      "author": "resistance-studios (https://sketchfab.com/resistance-studios)",
      "license": "CC-BY-4.0 (http://creativecommons.org/licenses/by/4.0/)",
      "source": "https://sketchfab.com/models/f0f159b6b9244594a0769f262a2e1d69",
      "title": "Plumbus"
    },
    "generator": "Sketchfab-3.18.6",
    "version": "2.0"
  },
  "bufferViews": [
    {
      "buffer": 0,
      "byteLength": 407412,
      "byteOffset": 0,
      "name": "floatBufferViews",
      "target": 34963
    },
    {
      "buffer": 0,
      "byteLength": 438624,
      "byteOffset": 407412,
      "byteStride": 12,
      "name": "floatBufferViews",
      "target": 34962
    },
    {
      "buffer": 0,
      "byteLength": 584832,
      "byteOffset": 846036,
      "byteStride": 16,
      "name": "floatBufferViews",
      "target": 34962
    }
  ],
  "buffers": [
    {
      "byteLength": 1430868,
      "uri": "scene.bin"
    }
  ],
  "materials": [
    {
      "doubleSided": true,
      "emissiveFactor": [
        0,
        0,
        0
      ],
      "name": "defaultMat",
      "pbrMetallicRoughness": {
        "baseColorFactor": [
          0.80000000000000004,
          0.80000000000000004,
          0.80000000000000004,
          1
        ],
        "metallicFactor": 0,
        "roughnessFactor": 0.092557607199999947
      }
    }
  ],
  "meshes": [
    {
      "primitives": [
        {
          "attributes": {
            "COLOR_0": 3,
            "NORMAL": 1,
            "POSITION": 0,
            "TANGENT": 2
          },
          "indices": 4,
          "material": 0,
          "mode": 4
        }
      ]
    }
  ],
  "nodes": [
    {
      "children": [
        1
      ],
      "name": "RootNode (gltf orientation matrix)",
      "rotation": [
        -0.70710678118654746,
        -0,
        -0,
        0.70710678118654757
      ]
    },
    {
      "children": [
        2
      ],
      "name": "RootNode (model correction matrix)"
    },
    {
      "children": [
        3
      ],
      "name": "plumbus.OBJ.cleaner.materialmerger.gles"
    },
    {
      "mesh": 0,
      "name": ""
    }
  ],
  "scene": 0,
  "scenes": [
    {
      "name": "OSG_Scene",
      "nodes": [
        0
      ]
    }
  ]
}

